{
    "accessors": {
        "accessor_21": {
            "bufferView": "bufferView_83",
            "byteOffset": 144,
            "byteStride": 0,
            "componentType": 5123,
            "count": 36,
            "type": "SCALAR"
        },
        "accessor_23": {
            "bufferView": "bufferView_84",
            "byteOffset": 2304,
            "byteStride": 12,
            "componentType": 5126,
            "count": 36,
            "max": [
                0.044075,
                0.138916,
                0
            ],
            "min": [
                -0.044075,
                -0.138916,
                -0.074802
            ],
            "type": "VEC3"
        },
        "accessor_25": {
            "bufferView": "bufferView_84",
            "byteOffset": 2736,
            "byteStride": 12,
            "componentType": 5126,
            "count": 36,
            "max": [
                1,
                1,
                1
            ],
            "min": [
                -1,
                -1,
                -1
            ],
            "type": "VEC3"
        },
        "accessor_27": {
            "bufferView": "bufferView_84",
            "byteOffset": 3168,
            "byteStride": 8,
            "componentType": 5126,
            "count": 36,
            "max": [
                1,
                1
            ],
            "min": [
                0,
                0
            ],
            "type": "VEC2"
        },
        "accessor_48": {
            "bufferView": "bufferView_83",
            "byteOffset": 0,
            "byteStride": 0,
            "componentType": 5123,
            "count": 36,
            "type": "SCALAR"
        },
        "accessor_50": {
            "bufferView": "bufferView_84",
            "byteOffset": 0,
            "byteStride": 12,
            "componentType": 5126,
            "count": 36,
            "max": [
                0.054851,
                0.04571,
                0
            ],
            "min": [
                -0.054851,
                -0.04571,
                -0.117081
            ],
            "type": "VEC3"
        },
        "accessor_52": {
            "bufferView": "bufferView_84",
            "byteOffset": 432,
            "byteStride": 12,
            "componentType": 5126,
            "count": 36,
            "max": [
                1,
                1,
                1
            ],
            "min": [
                -1,
                -1,
                -1
            ],
            "type": "VEC3"
        },
        "accessor_54": {
            "bufferView": "bufferView_84",
            "byteOffset": 864,
            "byteStride": 8,
            "componentType": 5126,
            "count": 36,
            "max": [
                1,
                1
            ],
            "min": [
                0,
                0
            ],
            "type": "VEC2"
        },
        "accessor_75": {
            "bufferView": "bufferView_83",
            "byteOffset": 72,
            "byteStride": 0,
            "componentType": 5123,
            "count": 36,
            "type": "SCALAR"
        },
        "accessor_77": {
            "bufferView": "bufferView_84",
            "byteOffset": 1152,
            "byteStride": 12,
            "componentType": 5126,
            "count": 36,
            "max": [
                0.032715,
                0.044533,
                0
            ],
            "min": [
                -0.032715,
                -0.044533,
                -0.071974
            ],
            "type": "VEC3"
        },
        "accessor_79": {
            "bufferView": "bufferView_84",
            "byteOffset": 1584,
            "byteStride": 12,
            "componentType": 5126,
            "count": 36,
            "max": [
                1,
                1,
                1
            ],
            "min": [
                -1,
                -1,
                -1
            ],
            "type": "VEC3"
        },
        "accessor_81": {
            "bufferView": "bufferView_84",
            "byteOffset": 2016,
            "byteStride": 8,
            "componentType": 5126,
            "count": 36,
            "max": [
                1,
                1
            ],
            "min": [
                0,
                0
            ],
            "type": "VEC2"
        }
    },
    "animations": {},
    "asset": {
        "generator": "collada2gltf@cf6371beb0bdc18ba603378d5e40c966da53d385",
        "premultipliedAlpha": true,
        "profile": {
            "api": "WebGL",
            "version": "1.0.2"
        },
        "version": "1.0"
    },
    "bufferViews": {
        "bufferView_83": {
            "buffer": "\\Users\\Administrator\\Desktop\\dixian",
            "byteLength": 216,
            "byteOffset": 0,
            "target": 34963
        },
        "bufferView_84": {
            "buffer": "\\Users\\Administrator\\Desktop\\dixian",
            "byteLength": 3456,
            "byteOffset": 216,
            "target": 34962
        }
    },
    "buffers": {
        "\\Users\\Administrator\\Desktop\\dixian": {
            "byteLength": 3672,
            "type": "arraybuffer",
            "uri": "data:application/octet-stream;base64,"
        }
    },
    "materials": {
        "__glTF__defaultMaterial0": {
            "name": "__glTF__defaultMaterial0",
            "technique": "technique0",
            "values": {
                "diffuse": [
                    1,
                    1,
                    1,
                    1
                ]
            }
        }
    },
    "meshes": {
        "AJ1-lib": {
            "name": "AJ1Mesh",
            "primitives": [
                {
                    "attributes": {
                        "NORMAL": "accessor_52",
                        "POSITION": "accessor_50",
                        "TEXCOORD_0": "accessor_54"
                    },
                    "indices": "accessor_48",
                    "material": "__glTF__defaultMaterial0",
                    "mode": 4
                }
            ]
        },
        "AJ2-lib": {
            "name": "AJ2Mesh",
            "primitives": [
                {
                    "attributes": {
                        "NORMAL": "accessor_79",
                        "POSITION": "accessor_77",
                        "TEXCOORD_0": "accessor_81"
                    },
                    "indices": "accessor_75",
                    "material": "__glTF__defaultMaterial0",
                    "mode": 4
                }
            ]
        },
        "Box001-lib": {
            "name": "Box001Mesh",
            "primitives": [
                {
                    "attributes": {
                        "NORMAL": "accessor_25",
                        "POSITION": "accessor_23",
                        "TEXCOORD_0": "accessor_27"
                    },
                    "indices": "accessor_21",
                    "material": "__glTF__defaultMaterial0",
                    "mode": 4
                }
            ]
        }
    },
    "nodes": {
        "AJ1": {
            "children": [],
            "matrix": [
                0.001,
                0,
                0,
                0,
                0,
                0,
                -0.001,
                0,
                0,
                0.001,
                0,
                0,
                0,
                -0.043932,
                0,
                1
            ],
            "meshes": [
                "AJ1-lib"
            ],
            "name": "AJ1"
        },
        "AJ2": {
            "children": [],
            "matrix": [
                0.001,
                0,
                0,
                0,
                0,
                0,
                -0.001,
                0,
                0,
                0.001,
                0,
                0,
                0,
                -0.043932,
                0,
                1
            ],
            "meshes": [
                "AJ2-lib"
            ],
            "name": "AJ2"
        },
        "Box001": {
            "children": [],
            "matrix": [
                0.001,
                0,
                0,
                0,
                0,
                0,
                -0.001,
                0,
                0,
                0.001,
                0,
                0,
                0,
                -0.043932,
                0,
                1
            ],
            "meshes": [
                "Box001-lib"
            ],
            "name": "Box001"
        }
    },
    "programs": {
        "program_0": {
            "attributes": [
                "a_normal",
                "a_position"
            ],
            "fragmentShader": "\\Users\\Administrator\\Desktop\\dixian0FS",
            "vertexShader": "\\Users\\Administrator\\Desktop\\dixian0VS"
        }
    },
    "scene": "defaultScene",
    "scenes": {
        "defaultScene": {
            "nodes": [
                "Box001",
                "AJ1",
                "AJ2"
            ]
        }
    },
    "shaders": {
        "\\Users\\Administrator\\Desktop\\dixian0FS": {
            "type": 35632,
            "uri": "data:text/plain;base64,"
        },
        "\\Users\\Administrator\\Desktop\\dixian0VS": {
            "type": 35633,
            "uri": "data:text/plain;base64,"
        }
    },
    "skins": {},
    "techniques": {
        "technique0": {
            "attributes": {
                "a_normal": "normal",
                "a_position": "position"
            },
            "parameters": {
                "diffuse": {
                    "type": 35666
                },
                "modelViewMatrix": {
                    "semantic": "MODELVIEW",
                    "type": 35676
                },
                "normal": {
                    "semantic": "NORMAL",
                    "type": 35665
                },
                "normalMatrix": {
                    "semantic": "MODELVIEWINVERSETRANSPOSE",
                    "type": 35675
                },
                "position": {
                    "semantic": "POSITION",
                    "type": 35665
                },
                "projectionMatrix": {
                    "semantic": "PROJECTION",
                    "type": 35676
                }
            },
            "program": "program_0",
            "states": {
                "enable": [
                    2929,
                    2884
                ]
            },
            "uniforms": {
                "u_diffuse": "diffuse",
                "u_modelViewMatrix": "modelViewMatrix",
                "u_normalMatrix": "normalMatrix",
                "u_projectionMatrix": "projectionMatrix"
            }
        }
    }
}