{
    "accessors": {
        "accessor_16": {
            "bufferView": "bufferView_76",
            "byteOffset": 144,
            "byteStride": 0,
            "componentType": 5123,
            "count": 12903,
            "type": "SCALAR"
        },
        "accessor_18": {
            "bufferView": "bufferView_77",
            "byteOffset": 2304,
            "byteStride": 12,
            "componentType": 5126,
            "count": 12903,
            "max": [
                0.286126,
                0.205501,
                0.098073
            ],
            "min": [
                -0.284247,
                -0.205507,
                -5.1336
            ],
            "type": "VEC3"
        },
        "accessor_20": {
            "bufferView": "bufferView_77",
            "byteOffset": 157140,
            "byteStride": 12,
            "componentType": 5126,
            "count": 12903,
            "max": [
                1,
                1,
                1
            ],
            "min": [
                -1,
                -1,
                -1
            ],
            "type": "VEC3"
        },
        "accessor_41": {
            "bufferView": "bufferView_76",
            "byteOffset": 0,
            "byteStride": 0,
            "componentType": 5123,
            "count": 36,
            "type": "SCALAR"
        },
        "accessor_43": {
            "bufferView": "bufferView_77",
            "byteOffset": 0,
            "byteStride": 12,
            "componentType": 5126,
            "count": 36,
            "max": [
                0.201471,
                0.259305,
                0
            ],
            "min": [
                -0.201471,
                -0.259305,
                -0.274034
            ],
            "type": "VEC3"
        },
        "accessor_45": {
            "bufferView": "bufferView_77",
            "byteOffset": 432,
            "byteStride": 12,
            "componentType": 5126,
            "count": 36,
            "max": [
                1,
                1,
                1
            ],
            "min": [
                -1,
                -1,
                -1
            ],
            "type": "VEC3"
        },
        "accessor_47": {
            "bufferView": "bufferView_77",
            "byteOffset": 864,
            "byteStride": 8,
            "componentType": 5126,
            "count": 36,
            "max": [
                1,
                1
            ],
            "min": [
                0,
                0
            ],
            "type": "VEC2"
        },
        "accessor_68": {
            "bufferView": "bufferView_76",
            "byteOffset": 72,
            "byteStride": 0,
            "componentType": 5123,
            "count": 36,
            "type": "SCALAR"
        },
        "accessor_70": {
            "bufferView": "bufferView_77",
            "byteOffset": 1152,
            "byteStride": 12,
            "componentType": 5126,
            "count": 36,
            "max": [
                0.165617,
                0.213875,
                0
            ],
            "min": [
                -0.165617,
                -0.213875,
                -0.258435
            ],
            "type": "VEC3"
        },
        "accessor_72": {
            "bufferView": "bufferView_77",
            "byteOffset": 1584,
            "byteStride": 12,
            "componentType": 5126,
            "count": 36,
            "max": [
                1,
                1,
                1
            ],
            "min": [
                -1,
                -1,
                -1
            ],
            "type": "VEC3"
        },
        "accessor_74": {
            "bufferView": "bufferView_77",
            "byteOffset": 2016,
            "byteStride": 8,
            "componentType": 5126,
            "count": 36,
            "max": [
                1,
                1
            ],
            "min": [
                0,
                0
            ],
            "type": "VEC2"
        }
    },
    "animations": {},
    "asset": {
        "generator": "collada2gltf@cf6371beb0bdc18ba603378d5e40c966da53d385",
        "premultipliedAlpha": true,
        "profile": {
            "api": "WebGL",
            "version": "1.0.2"
        },
        "version": "1.0"
    },
    "bufferViews": {
        "bufferView_76": {
            "buffer": "\\jyz222",
            "byteLength": 25952,
            "byteOffset": 0,
            "target": 34963
        },
        "bufferView_77": {
            "buffer": "\\jyz222",
            "byteLength": 311976,
            "byteOffset": 25952,
            "target": 34962
        }
    },
    "buffers": {
        "\\jyz222": {
            "byteLength": 337928,
            "type": "arraybuffer",
            "uri": "data:application/octet-stream;base64,"
        }
    },
    "materials": {
        "__glTF__defaultMaterial0": {
            "name": "__glTF__defaultMaterial0",
            "technique": "technique0",
            "values": {
                "diffuse": [
                    1,
                    1,
                    1,
                    1
                ]
            }
        },
        "__glTF__defaultMaterial0-fx": {
            "name": "__glTF__defaultMaterial0",
            "technique": "technique1",
            "values": {
                "ambient": [
                    1,
                    1,
                    1,
                    1
                ],
                "diffuse": [
                    1,
                    1,
                    1,
                    1
                ],
                "emission": [
                    0,
                    0,
                    0,
                    1
                ],
                "shininess": 8,
                "specular": [
                    0,
                    0,
                    0,
                    1
                ]
            }
        }
    },
    "meshes": {
        "AJ1-lib": {
            "name": "AJ1Mesh",
            "primitives": [
                {
                    "attributes": {
                        "NORMAL": "accessor_45",
                        "POSITION": "accessor_43",
                        "TEXCOORD_0": "accessor_47"
                    },
                    "indices": "accessor_41",
                    "material": "__glTF__defaultMaterial0",
                    "mode": 4
                }
            ]
        },
        "AJ2-lib": {
            "name": "AJ2Mesh",
            "primitives": [
                {
                    "attributes": {
                        "NORMAL": "accessor_72",
                        "POSITION": "accessor_70",
                        "TEXCOORD_0": "accessor_74"
                    },
                    "indices": "accessor_68",
                    "material": "__glTF__defaultMaterial0",
                    "mode": 4
                }
            ]
        },
        "_500-txc-lib": {
            "name": "_500-txcMesh",
            "primitives": [
                {
                    "attributes": {
                        "NORMAL": "accessor_20",
                        "POSITION": "accessor_18"
                    },
                    "indices": "accessor_16",
                    "material": "__glTF__defaultMaterial0-fx",
                    "mode": 4
                }
            ]
        }
    },
    "nodes": {
        "AJ1": {
            "children": [],
            "matrix": [
                0.0001,
                0,
                0,
                0,
                0,
                0,
                -0.0001,
                0,
                0,
                0.0001,
                0,
                0,
                -0.000954,
                0.097913,
                6.9e-005,
                1
            ],
            "meshes": [
                "AJ1-lib"
            ],
            "name": "AJ1"
        },
        "AJ2": {
            "children": [],
            "matrix": [
                0.0001,
                0,
                0,
                0,
                0,
                0,
                -0.0001,
                0,
                0,
                0.0001,
                0,
                0,
                0.000306,
                -5.01476,
                0.000555,
                1
            ],
            "meshes": [
                "AJ2-lib"
            ],
            "name": "AJ2"
        },
        "_500-txc": {
            "children": [],
            "matrix": [
                1,
                0,
                0,
                0,
                0,
                0,
                -1,
                0,
                0,
                1,
                0,
                0,
                0,
                0,
                0,
                1
            ],
            "meshes": [
                "_500-txc-lib"
            ],
            "name": "_500-txc"
        },
        "": {
            "children": [],
            "matrix": [
                1,
                0,
                0,
                0,
                0,
                0,
                -1,
                0,
                0,
                1,
                0,
                0,
                0,
                0,
                0,
                1
            ],
            "name": ""
        },
        "": {
            "children": [],
            "matrix": [
                1,
                0,
                0,
                0,
                0,
                0,
                -1,
                0,
                0,
                1,
                0,
                0,
                0,
                0,
                0,
                1
            ],
            "name": ""
        }
    },
    "programs": {
        "program_0": {
            "attributes": [
                "a_normal",
                "a_position"
            ],
            "fragmentShader": "\\jyz2220FS",
            "vertexShader": "\\jyz2220VS"
        },
        "program_1": {
            "attributes": [
                "a_normal",
                "a_position"
            ],
            "fragmentShader": "\\jyz2221FS",
            "vertexShader": "\\jyz2221VS"
        }
    },
    "scene": "defaultScene",
    "scenes": {
        "defaultScene": {
            "nodes": [
                "",
                "",
                "_500-txc",
                "AJ1",
                "AJ2"
            ]
        }
    },
    "shaders": {
        "\\jyz2220FS": {
            "type": 35632,
            "uri": "data:text/plain;base64,"
        },
        "\\jyz2220VS": {
            "type": 35633,
            "uri": "data:text/plain;base64,"
        },
        "\\jyz2221FS": {
            "type": 35632,
            "uri": "data:text/plain;base64,"
        },
        "\\jyz2221VS": {
            "type": 35633,
            "uri": "data:text/plain;base64,"
        }
    },
    "skins": {},
    "techniques": {
        "technique0": {
            "attributes": {
                "a_normal": "normal",
                "a_position": "position"
            },
            "parameters": {
                "diffuse": {
                    "type": 35666
                },
                "modelViewMatrix": {
                    "semantic": "MODELVIEW",
                    "type": 35676
                },
                "normal": {
                    "semantic": "NORMAL",
                    "type": 35665
                },
                "normalMatrix": {
                    "semantic": "MODELVIEWINVERSETRANSPOSE",
                    "type": 35675
                },
                "position": {
                    "semantic": "POSITION",
                    "type": 35665
                },
                "projectionMatrix": {
                    "semantic": "PROJECTION",
                    "type": 35676
                }
            },
            "program": "program_0",
            "states": {
                "enable": [
                    2929,
                    2884
                ]
            },
            "uniforms": {
                "u_diffuse": "diffuse",
                "u_modelViewMatrix": "modelViewMatrix",
                "u_normalMatrix": "normalMatrix",
                "u_projectionMatrix": "projectionMatrix"
            }
        },
        "technique1": {
            "attributes": {
                "a_normal": "normal",
                "a_position": "position"
            },
            "parameters": {
                "ambient": {
                    "type": 35666
                },
                "diffuse": {
                    "type": 35666
                },
                "emission": {
                    "type": 35666
                },
                "modelViewMatrix": {
                    "semantic": "MODELVIEW",
                    "type": 35676
                },
                "normal": {
                    "semantic": "NORMAL",
                    "type": 35665
                },
                "normalMatrix": {
                    "semantic": "MODELVIEWINVERSETRANSPOSE",
                    "type": 35675
                },
                "position": {
                    "semantic": "POSITION",
                    "type": 35665
                },
                "projectionMatrix": {
                    "semantic": "PROJECTION",
                    "type": 35676
                },
                "shininess": {
                    "type": 5126
                },
                "specular": {
                    "type": 35666
                }
            },
            "program": "program_1",
            "states": {
                "enable": [
                    2929,
                    2884
                ]
            },
            "uniforms": {
                "u_ambient": "ambient",
                "u_diffuse": "diffuse",
                "u_emission": "emission",
                "u_modelViewMatrix": "modelViewMatrix",
                "u_normalMatrix": "normalMatrix",
                "u_projectionMatrix": "projectionMatrix",
                "u_shininess": "shininess",
                "u_specular": "specular"
            }
        }
    }
}